HIERARCHY
ROOT Hips
{
	OFFSET 0.000000 71.427986 0.000000
	CHANNELS 6 Xposition Yposition Zposition Xrotation Yrotation Zrotation
	JOINT Pelvis
	{
		OFFSET 0.000000 0.000000 0.000000
		CHANNELS 3 Xrotation Yrotation Zrotation
		JOINT LeftUpLeg
		{
			OFFSET 6.797100 -2.508499 -1.318700
			CHANNELS 3 Xrotation Yrotation Zrotation
			JOINT LeftLeg
			{
				OFFSET 0.069008 -29.241863 0.690200
				CHANNELS 3 Xrotation Yrotation Zrotation
				JOINT LeftFoot
				{
					OFFSET -0.069008 -29.568123 -0.266800
					CHANNELS 3 Xrotation Yrotation Zrotation
					JOINT LeftToeBase
					{
						OFFSET 3.145500 -8.631000 16.059900
						CHANNELS 3 Xrotation Yrotation Zrotation
						End Site
						{
							OFFSET 0.000000 18.501587 0.000000
						}
					}
				}
			}
			JOINT Left_ShortSleeve
			{
				OFFSET 0.265923 -10.480953 1.153800
				CHANNELS 3 Xrotation Yrotation Zrotation
				End Site
				{
					OFFSET 1.725763 19.823879 0.000000
				}
			}
		}
		JOINT RightUpLeg
		{
			OFFSET -6.797100 -2.508499 -1.318700
			CHANNELS 3 Xrotation Yrotation Zrotation
			JOINT RightLeg
			{
				OFFSET -0.082453 -29.241932 0.688000
				CHANNELS 3 Xrotation Yrotation Zrotation
				JOINT RightFoot
				{
					OFFSET 0.082453 -29.568058 -0.264600
					CHANNELS 3 Xrotation Yrotation Zrotation
					JOINT RightToeBase
					{
						OFFSET -3.115300 -8.682800 16.113400
						CHANNELS 3 Xrotation Yrotation Zrotation
						End Site
						{
							OFFSET 0.000000 18.567114 0.000000
						}
					}
				}
			}
			JOINT Right_ShortSleeve
			{
				OFFSET -0.265923 -10.480953 1.153800
				CHANNELS 3 Xrotation Yrotation Zrotation
				End Site
				{
					OFFSET -1.725766 19.823910 0.000000
				}
			}
		}
	}
	JOINT Spine
	{
		OFFSET 0.000000 13.368103 0.470500
		CHANNELS 3 Xrotation Yrotation Zrotation
		JOINT Spine1
		{
			OFFSET 0.147000 13.837402 0.538800
			CHANNELS 3 Xrotation Yrotation Zrotation
			JOINT Spine2
			{
				OFFSET 0.168000 16.242897 -1.435500
				CHANNELS 3 Xrotation Yrotation Zrotation
				JOINT Neck
				{
					OFFSET 0.217200 18.631500 -1.679100
					CHANNELS 3 Xrotation Yrotation Zrotation
					JOINT Head
					{
						OFFSET 0.000000 6.599396 1.385900
						CHANNELS 3 Xrotation Yrotation Zrotation
						JOINT Hat
						{
							OFFSET -0.532200 27.220596 -10.096100
							CHANNELS 3 Xrotation Yrotation Zrotation
							End Site
							{
								OFFSET 0.000000 22.029861 0.000000
							}
						}
						JOINT HairD
						{
							OFFSET -10.777400 17.437393 -1.325900
							CHANNELS 3 Xrotation Yrotation Zrotation
							JOINT HairD1
							{
								OFFSET -3.290299 -11.051193 1.062200
								CHANNELS 3 Xrotation Yrotation Zrotation
								End Site
								{
									OFFSET 0.000000 11.579437 0.000000
								}
							}
						}
						JOINT HairB
						{
							OFFSET -10.777400 17.437393 1.467900
							CHANNELS 3 Xrotation Yrotation Zrotation
							JOINT HairB1
							{
								OFFSET -1.561200 -12.956299 3.590200
								CHANNELS 3 Xrotation Yrotation Zrotation
								End Site
								{
									OFFSET 0.000000 13.534866 0.000000
								}
							}
						}
						JOINT HairA
						{
							OFFSET 9.713100 17.437393 1.467900
							CHANNELS 3 Xrotation Yrotation Zrotation
							JOINT HairA1
							{
								OFFSET 1.561200 -12.956299 3.590200
								CHANNELS 3 Xrotation Yrotation Zrotation
								End Site
								{
									OFFSET 0.000000 13.534866 0.000000
								}
							}
						}
						JOINT HairC
						{
							OFFSET 9.713100 17.437393 -1.325900
							CHANNELS 3 Xrotation Yrotation Zrotation
							JOINT HairC1
							{
								OFFSET 3.290300 -11.051193 1.062200
								CHANNELS 3 Xrotation Yrotation Zrotation
								End Site
								{
									OFFSET 0.000000 11.579437 0.000000
								}
							}
						}
					}
				}
				JOINT LeftShoulder
				{
					OFFSET 5.101800 15.108002 -2.763700
					CHANNELS 3 Xrotation Yrotation Zrotation
					JOINT LeftArm
					{
						OFFSET 9.825497 2.506317 -1.597400
						CHANNELS 3 Xrotation Yrotation Zrotation
						JOINT LeftForeArm
						{
							OFFSET 21.966244 0.000000 0.000000
							CHANNELS 3 Xrotation Yrotation Zrotation
							JOINT LeftHand
							{
								OFFSET 33.879036 0.000000 0.000000
								CHANNELS 3 Xrotation Yrotation Zrotation
								JOINT LeftHandThumb1
								{
									OFFSET 6.715286 -2.359680 3.363841
									CHANNELS 3 Xrotation Yrotation Zrotation
									JOINT LeftHandThumb2
									{
										OFFSET 2.507072 -1.447464 1.447461
										CHANNELS 3 Xrotation Yrotation Zrotation
										JOINT LeftHandThumb3
										{
											OFFSET 2.898338 -1.673355 1.673357
											CHANNELS 3 Xrotation Yrotation Zrotation
											End Site
											{
												OFFSET -0.295959 3.727692 -0.131651
											}
										}
									}
								}
								JOINT LeftHandIndex1
								{
									OFFSET 14.190811 -0.254547 3.840278
									CHANNELS 3 Xrotation Yrotation Zrotation
									JOINT LeftHandIndex2
									{
										OFFSET 3.551727 0.000000 -0.000000
										CHANNELS 3 Xrotation Yrotation Zrotation
										JOINT LeftHandIndex3
										{
											OFFSET 2.894196 0.000000 0.000000
											CHANNELS 3 Xrotation Yrotation Zrotation
											End Site
											{
												OFFSET -1.000603 2.690872 0.366626
											}
										}
									}
								}
								JOINT LeftHandMiddle1
								{
									OFFSET 13.776489 0.000000 0.000000
									CHANNELS 3 Xrotation Yrotation Zrotation
									JOINT LeftHandMiddle2
									{
										OFFSET 3.438232 0.000000 0.000000
										CHANNELS 3 Xrotation Yrotation Zrotation
										JOINT LeftHandMiddle3
										{
											OFFSET 3.691551 0.000000 0.000000
											CHANNELS 3 Xrotation Yrotation Zrotation
											End Site
											{
												OFFSET -1.082298 3.499527 0.457670
											}
										}
									}
								}
								JOINT LeftHandRing1
								{
									OFFSET 13.966164 -0.268127 -3.067488
									CHANNELS 3 Xrotation Yrotation Zrotation
									JOINT LeftHandRing2
									{
										OFFSET 3.162567 0.000000 0.000000
										CHANNELS 3 Xrotation Yrotation Zrotation
										JOINT LeftHandRing3
										{
											OFFSET 3.324348 0.000000 0.000000
											CHANNELS 3 Xrotation Yrotation Zrotation
											End Site
											{
												OFFSET -0.861900 3.184998 0.405154
											}
										}
									}
								}
								JOINT LeftHandPinky1
								{
									OFFSET 13.131393 -0.168503 -5.746925
									CHANNELS 3 Xrotation Yrotation Zrotation
									JOINT LeftHandPinky2
									{
										OFFSET 2.849182 0.000000 0.000000
										CHANNELS 3 Xrotation Yrotation Zrotation
										JOINT LeftHandPinky3
										{
											OFFSET 2.805038 0.000000 0.000000
											CHANNELS 3 Xrotation Yrotation Zrotation
											End Site
											{
												OFFSET -0.882500 2.642609 0.325652
											}
										}
									}
								}
							}
							JOINT Left_Sleeve
							{
								OFFSET 6.592125 -0.646545 0.805568
								CHANNELS 3 Xrotation Yrotation Zrotation
								End Site
								{
									OFFSET -0.000179 20.275787 -0.000000
								}
							}
						}
					}
				}
				JOINT RightShoulder
				{
					OFFSET -5.731700 15.108002 -2.763700
					CHANNELS 3 Xrotation Yrotation Zrotation
					JOINT RightArm
					{
						OFFSET -9.825497 2.506317 -1.597400
						CHANNELS 3 Xrotation Yrotation Zrotation
						JOINT RightForeArm
						{
							OFFSET -21.966242 0.000000 0.000000
							CHANNELS 3 Xrotation Yrotation Zrotation
							JOINT RightHand
							{
								OFFSET -33.879032 0.000000 0.000000
								CHANNELS 3 Xrotation Yrotation Zrotation
								JOINT RightHandThumb1
								{
									OFFSET -6.715286 -2.359680 3.363841
									CHANNELS 3 Xrotation Yrotation Zrotation
									JOINT RightHandThumb2
									{
										OFFSET -2.507072 -1.447464 1.447461
										CHANNELS 3 Xrotation Yrotation Zrotation
										JOINT RightHandThumb3
										{
											OFFSET -2.898338 -1.673355 1.673357
											CHANNELS 3 Xrotation Yrotation Zrotation
											End Site
											{
												OFFSET 0.295959 3.727692 -0.131651
											}
										}
									}
								}
								JOINT RightHandIndex1
								{
									OFFSET -14.190811 -0.254547 3.840278
									CHANNELS 3 Xrotation Yrotation Zrotation
									JOINT RightHandIndex2
									{
										OFFSET -3.551727 0.000000 -0.000000
										CHANNELS 3 Xrotation Yrotation Zrotation
										JOINT RightHandIndex3
										{
											OFFSET -2.894196 0.000000 0.000000
											CHANNELS 3 Xrotation Yrotation Zrotation
											End Site
											{
												OFFSET 1.000603 2.690872 0.366626
											}
										}
									}
								}
								JOINT RightHandMiddle1
								{
									OFFSET -13.776489 0.000000 0.000000
									CHANNELS 3 Xrotation Yrotation Zrotation
									JOINT RightHandMiddle2
									{
										OFFSET -3.438232 0.000000 0.000000
										CHANNELS 3 Xrotation Yrotation Zrotation
										JOINT RightHandMiddle3
										{
											OFFSET -3.691551 0.000000 0.000000
											CHANNELS 3 Xrotation Yrotation Zrotation
											End Site
											{
												OFFSET 1.082298 3.499527 0.457670
											}
										}
									}
								}
								JOINT RightHandRing1
								{
									OFFSET -13.966164 -0.268127 -3.067488
									CHANNELS 3 Xrotation Yrotation Zrotation
									JOINT RightHandRing2
									{
										OFFSET -3.162567 0.000000 0.000000
										CHANNELS 3 Xrotation Yrotation Zrotation
										JOINT RightHandRing3
										{
											OFFSET -3.324348 0.000000 0.000000
											CHANNELS 3 Xrotation Yrotation Zrotation
											End Site
											{
												OFFSET 0.861900 3.184998 0.405154
											}
										}
									}
								}
								JOINT RightHandPinky1
								{
									OFFSET -13.131393 -0.168503 -5.746925
									CHANNELS 3 Xrotation Yrotation Zrotation
									JOINT RightHandPinky2
									{
										OFFSET -2.849182 0.000000 0.000000
										CHANNELS 3 Xrotation Yrotation Zrotation
										JOINT RightHandPinky3
										{
											OFFSET -2.805038 0.000000 0.000000
											CHANNELS 3 Xrotation Yrotation Zrotation
											End Site
											{
												OFFSET 0.882500 2.642609 0.325652
											}
										}
									}
								}
							}
							JOINT Right_Sleeve
							{
								OFFSET -6.592125 -0.646545 0.805568
								CHANNELS 3 Xrotation Yrotation Zrotation
								End Site
								{
									OFFSET 0.000179 20.275787 -0.000000
								}
							}
						}
					}
				}
				JOINT Bind_Right_JacketString
				{
					OFFSET -3.534800 11.969597 7.200700
					CHANNELS 3 Xrotation Yrotation Zrotation
					JOINT Bind_Right_JacketString1
					{
						OFFSET -0.319900 -6.102600 2.794100
						CHANNELS 3 Xrotation Yrotation Zrotation
						End Site
						{
							OFFSET 0.000000 6.719452 0.000000
						}
					}
				}
				JOINT Bind_Left_JacketString
				{
					OFFSET 2.904800 11.969597 7.200700
					CHANNELS 3 Xrotation Yrotation Zrotation
					JOINT Bind_Left_JacketString1
					{
						OFFSET 0.364800 -5.904503 3.186800
						CHANNELS 3 Xrotation Yrotation Zrotation
						End Site
						{
							OFFSET 0.000000 6.719513 0.000000
						}
					}
				}
				JOINT HairE
				{
					OFFSET 5.915200 17.612701 -11.592200
					CHANNELS 3 Xrotation Yrotation Zrotation
					JOINT HairE1
					{
						OFFSET 0.289200 -7.171898 -1.284500
						CHANNELS 3 Xrotation Yrotation Zrotation
						End Site
						{
							OFFSET 0.000000 7.291756 0.000000
						}
					}
				}
				JOINT HairF
				{
					OFFSET -0.864800 17.612701 -11.592200
					CHANNELS 3 Xrotation Yrotation Zrotation
					JOINT HairF1
					{
						OFFSET 0.000000 -14.087097 -2.127501
						CHANNELS 3 Xrotation Yrotation Zrotation
						End Site
						{
							OFFSET 0.000000 14.246841 0.000000
						}
					}
				}
				JOINT HairG
				{
					OFFSET -8.087700 17.612701 -11.592200
					CHANNELS 3 Xrotation Yrotation Zrotation
					JOINT HairG1
					{
						OFFSET -0.293600 -6.081398 -0.910100
						CHANNELS 3 Xrotation Yrotation Zrotation
						End Site
						{
							OFFSET 0.000000 6.156120 0.000000
						}
					}
				}
			}
		}
	}
	JOINT Pouch
	{
		OFFSET 0.000000 4.394501 10.847300
		CHANNELS 3 Xrotation Yrotation Zrotation
		End Site
		{
			OFFSET 0.000000 21.880577 0.000000
		}
	}
	JOINT Bag
	{
		OFFSET -13.229000 4.813004 -0.593300
		CHANNELS 3 Xrotation Yrotation Zrotation
		End Site
		{
			OFFSET 0.000000 21.880577 0.000000
		}
	}
	JOINT OccupyGuyFacialAnim_Joint
	{
		OFFSET 1.000000 -70.206398 -1.655000
		CHANNELS 3 Xrotation Yrotation Zrotation
		End Site
		{
			OFFSET 0.000000 21.880577 0.000000
		}
	}
}
MOTION
Frames: 4
Frame Time: 0.016667
-0.036390 68.886703 1.221645 -24.511613 -2.387374 -1.604535 0.000001 -0.000000 -0.000000 5.158451 20.031750 8.948545 34.693775 5.186320 -9.828185 -19.802100 29.598294 7.941819 0.000000 -0.000003 0.000000 -0.000001 0.000001 0.000000 18.179766 -14.952865 -2.624028 32.384382 -10.292235 0.349439 -22.480174 -28.502197 2.090619 -0.000000 -0.000004 -0.000000 -0.000000 0.000002 -0.000000 11.186821 -4.829643 -0.739841 3.545657 -2.400647 -0.151373 3.557023 -2.388381 -0.108336 1.551790 0.634300 -1.308391 -6.938529 0.762142 3.865455 0.000000 -0.000000 -0.000000 0.000000 -0.000000 -0.000000 0.000000 -0.000000 0.000000 0.000000 -0.000000 -0.000000 0.000000 0.000000 0.000000 0.000000 -0.000000 -0.000000 0.000000 0.000000 0.000000 0.000000 -0.000000 -0.000000 0.000000 -0.000000 -0.000000 0.445072 -15.488173 -11.025448 -20.285392 3.054798 -36.773544 0.000030 -67.201924 0.000027 -41.639989 -11.471788 -7.743327 -22.783290 -14.798049 12.273479 3.104725 10.435613 14.815840 0.000000 -0.000000 -0.000001 1.968603 -2.875788 26.071493 3.265031 5.250333 -63.730419 0.000001 0.000001 0.000003 -0.918325 3.905201 20.820679 2.974891 5.097493 -60.513823 -0.000001 0.000001 0.000001 -6.190601 13.399346 27.815693 3.764263 5.467493 -69.071948 0.000000 0.000000 0.000000 -10.204740 21.361500 28.797812 0.278389 1.786141 -17.716461 -0.000001 0.000000 0.000001 -0.000001 0.000001 -0.000000 0.064831 14.691500 14.953770 -12.069992 -6.923744 61.446643 -0.000001 39.415434 0.000007 -1.892006 -4.118458 24.314828 -20.073108 16.089486 -24.921327 8.794337 -40.952742 -1.386080 0.000001 -0.000002 -0.000000 1.063119 -5.182564 38.505543 3.100487 -4.389824 70.453019 -0.000000 0.000000 0.000000 2.946409 -6.593262 70.499867 0.642396 -2.362174 30.423145 0.000004 -0.000000 -0.000001 5.948290 -7.199711 80.598575 0.322690 -1.704981 21.432102 0.000001 -0.000000 0.000001 1.932489 -22.479116 97.263308 1.111349 -3.021278 40.383989 -0.000003 0.000003 0.000003 0.000000 -0.000002 -0.000000 -0.000001 -0.000001 -0.000000 -0.000001 -0.000001 -0.000000 -0.000001 -0.000001 -0.000000 -0.000001 -0.000001 -0.000000 -0.000001 -0.000001 -0.000000 -0.000001 -0.000001 -0.000000 -0.000001 -0.000001 -0.000000 -0.000001 -0.000001 -0.000000 -0.000001 -0.000001 -0.000000 -0.000001 -0.000001 -0.000000 0.000001 -0.000000 -0.000000 0.000001 -0.000000 -0.000000 0.000001 -0.000000 -0.000000 
-0.376052 68.872772 1.382164 -24.533411 -3.346029 -2.068336 -0.000003 0.000000 -0.000000 3.785426 20.381812 10.128435 37.061368 5.250958 -9.849901 -19.487430 29.620328 7.387352 0.000000 -0.000001 0.000000 -0.000002 0.000003 0.000001 18.347669 -14.607055 -2.374440 32.353776 -10.124535 0.441968 -22.853982 -27.950548 1.742371 -0.000000 -0.000000 -0.000000 -0.000000 -0.000000 -0.000000 11.188748 -4.835690 -0.716942 3.545658 -2.400648 -0.151373 3.557023 -2.388382 -0.108336 1.569039 0.632570 -1.281186 -6.886419 0.740094 3.939075 -0.000000 -0.000000 -0.000000 -0.000000 -0.000000 -0.000000 -0.000000 -0.000000 -0.000000 -0.000000 -0.000000 -0.000000 -0.000001 -0.000000 0.000000 -0.000000 -0.000000 -0.000000 -0.000001 -0.000000 0.000000 -0.000000 -0.000000 -0.000000 -0.000000 -0.000000 -0.000000 0.453286 -15.502122 -10.972480 -20.293307 3.094327 -36.833619 -0.000029 -67.199328 -0.000040 -41.623685 -11.480599 -7.750266 -22.783288 -14.798045 12.273480 3.108327 10.435732 14.812906 -0.000001 0.000001 -0.000002 1.972011 -2.886995 26.060469 3.263306 5.249481 -63.711704 -0.000001 0.000002 -0.000003 -0.911532 3.888555 20.812162 2.975754 5.097964 -60.523604 0.000001 0.000001 0.000001 -6.204513 13.442070 27.794073 3.753705 5.463486 -68.961176 0.000001 -0.000001 -0.000002 -10.221030 21.393290 28.797341 0.277970 1.784783 -17.702283 -0.000000 -0.000000 -0.000001 -0.000002 -0.000001 0.000000 0.059576 14.649711 15.003832 -12.024884 -6.807492 61.377630 -0.000006 39.437031 0.000004 -1.973393 -4.141920 24.291517 -20.073110 16.089489 -24.921328 8.794342 -40.952756 -1.386078 0.000000 0.000002 0.000001 1.073336 -5.197517 38.626106 3.094962 -4.387860 70.380776 -0.000005 0.000002 0.000001 2.960356 -6.598244 70.519736 0.642402 -2.362205 30.423575 -0.000002 0.000000 -0.000002 5.942355 -7.197719 80.626681 0.322950 -1.705693 21.441506 0.000004 0.000000 -0.000002 1.935739 -22.481223 97.290219 1.111354 -3.021278 40.383992 0.000002 -0.000001 -0.000001 -0.000000 0.000003 -0.000001 0.000000 0.000000 0.000000 0.000000 -0.000001 -0.000000 0.000000 0.000000 0.000000 0.000000 0.000000 0.000000 0.000000 0.000000 0.000000 0.000000 -0.000001 0.000000 0.000000 0.000000 0.000000 0.000000 0.000000 0.000000 0.000000 0.000000 0.000000 0.000000 -0.000001 0.000000 -0.000003 0.000000 -0.000000 -0.000003 0.000000 -0.000000 -0.000003 0.000000 -0.000000 
-0.697657 68.855354 1.519125 -24.562754 -4.309694 -2.538808 -0.000000 -0.000000 0.000000 2.200197 20.678669 11.386799 39.693183 5.302375 -9.865777 -19.128343 29.606746 7.152368 0.000000 -0.000001 0.000000 -0.000002 0.000002 0.000001 18.470280 -14.267449 -2.144563 32.360173 -10.021115 0.517925 -23.188383 -27.326359 1.451613 -0.000000 -0.000002 -0.000000 0.000001 -0.000000 -0.000001 11.190941 -4.842302 -0.690956 3.545659 -2.400647 -0.151373 3.557023 -2.388382 -0.108336 1.594336 0.627993 -1.252938 -6.802725 0.692378 4.007736 0.000000 0.000000 0.000000 0.000000 0.000000 0.000000 0.000000 0.000000 0.000000 0.000000 0.000000 0.000000 0.000000 -0.000000 0.000000 0.000000 0.000000 0.000000 0.000000 -0.000000 0.000000 0.000000 0.000000 0.000000 0.000000 0.000000 0.000000 0.460827 -15.508030 -10.923493 -20.284318 3.109536 -36.878923 0.000031 -67.192901 0.000043 -41.627028 -11.498702 -7.746713 -22.783286 -14.798049 12.273479 3.113748 10.435883 14.808478 0.000001 -0.000000 -0.000000 1.969735 -2.895180 26.045166 3.259409 5.247579 -63.669043 0.000001 0.000002 -0.000003 -0.905922 3.873771 20.810162 2.976660 5.098474 -60.533624 0.000001 -0.000001 -0.000001 -6.207487 13.460003 27.775157 3.749428 5.461818 -68.916240 -0.000000 0.000001 -0.000001 -10.231265 21.412764 28.801453 0.278411 1.786177 -17.716712 0.000000 -0.000001 0.000001 0.000003 -0.000000 0.000000 0.056286 14.633617 15.032352 -11.965740 -6.692804 61.317156 -0.000007 39.454062 0.000009 -2.087405 -4.155303 24.254593 -20.073111 16.089487 -24.921332 8.794339 -40.952745 -1.386077 0.000000 -0.000001 -0.000000 1.083636 -5.208391 38.767925 3.091840 -4.386758 70.339986 0.000002 -0.000001 0.000004 2.965377 -6.600107 70.543608 0.642266 -2.361960 30.420119 0.000007 -0.000000 -0.000003 5.939507 -7.195745 80.668653 0.323106 -1.706115 21.447083 0.000002 0.000001 -0.000000 1.933411 -22.482339 97.298237 1.111353 -3.021280 40.383992 -0.000002 0.000000 0.000002 0.000000 0.000001 0.000000 0.000000 0.000001 0.000000 0.000000 0.000002 0.000000 0.000000 0.000001 0.000000 0.000000 0.000001 0.000000 0.000000 0.000001 0.000000 0.000000 0.000002 0.000000 0.000000 0.000001 0.000000 0.000000 0.000001 0.000000 0.000000 0.000001 0.000000 0.000000 0.000002 0.000000 -0.000000 -0.000000 0.000000 -0.000000 -0.000000 0.000000 -0.000000 -0.000000 0.000000 
-1.053140 68.835289 1.675125 -24.599773 -5.277908 -3.016444 0.000002 0.000001 0.000000 0.514346 20.885720 12.730400 42.428244 5.325508 -9.842335 -18.691043 29.569433 7.172885 -0.000000 0.000003 -0.000000 0.000003 -0.000001 0.000000 18.642045 -13.946144 -1.871737 32.334908 -9.966034 0.569705 -23.531258 -26.647642 1.179790 -0.000000 -0.000002 -0.000000 -0.000001 -0.000002 -0.000000 11.193432 -4.849717 -0.661557 3.545658 -2.400646 -0.151372 3.557022 -2.388383 -0.108336 1.621908 0.619889 -1.221550 -6.707822 0.616421 4.081618 -0.000000 0.000000 -0.000000 -0.000000 0.000000 -0.000000 -0.000000 0.000000 -0.000000 -0.000000 0.000000 -0.000000 -0.000001 -0.000000 -0.000000 -0.000000 0.000000 -0.000000 -0.000001 -0.000000 -0.000000 -0.000000 0.000000 -0.000000 -0.000000 0.000000 -0.000000 0.467433 -15.512266 -10.880579 -20.273859 3.119686 -36.916913 0.000007 -67.186665 0.000016 -41.632909 -11.516138 -7.742032 -22.783291 -14.798045 12.273480 3.121089 10.436146 14.802482 0.000001 -0.000000 -0.000001 1.966061 -2.898954 26.024718 3.255061 5.245420 -63.621498 0.000000 0.000000 0.000003 -0.901175 3.860904 20.811086 2.977375 5.098891 -60.541936 -0.000002 0.000000 -0.000001 -6.204280 13.462561 27.759999 3.748884 5.461618 -68.910516 0.000000 0.000000 -0.000002 -10.237947 21.423495 28.810100 0.279204 1.788717 -17.742630 -0.000000 -0.000000 0.000001 0.000002 0.000000 0.000000 0.054409 14.630957 15.046420 -11.904875 -6.587382 61.267350 -0.000029 39.465711 0.000046 -2.208370 -4.161584 24.213827 -20.073111 16.089484 -24.921328 8.794339 -40.952742 -1.386073 0.000001 -0.000001 0.000000 1.092562 -5.215374 38.900338 3.089319 -4.385863 70.307133 -0.000001 0.000000 0.000002 2.965389 -6.600182 70.564385 0.642088 -2.361642 30.415577 0.000002 -0.000001 0.000001 5.938337 -7.193971 80.713691 0.323233 -1.706383 21.450621 -0.000002 -0.000001 -0.000000 1.923046 -22.482462 97.283593 1.111350 -3.021278 40.383992 0.000001 0.000001 -0.000001 -0.000000 0.000001 0.000003 0.000001 0.000002 0.000000 0.000000 0.000002 0.000000 0.000001 0.000002 0.000000 0.000001 0.000002 0.000000 0.000001 0.000002 0.000000 0.000000 0.000002 0.000000 0.000001 0.000002 0.000000 0.000001 0.000002 0.000000 0.000001 0.000002 0.000000 0.000000 0.000002 0.000000 0.000002 0.000001 0.000000 0.000002 0.000001 0.000000 0.000002 0.000001 0.000000 
